<svg xmlns="http://www.w3.org/2000/svg" xml:space="preserve" viewBox="0 0 30 30"><path d="M7.567 13.083 3.274 5.647A14.973 14.973 0 0 1 15 .001c5.492 0 10.293 2.951 12.906 7.354H15.668a7.397 7.397 0 0 0-.668-.03c-3.57 0-6.579 2.45-7.433 5.758zm12.804-3.561h8.598A14.968 14.968 0 0 1 30 15.001c0 8.227-6.623 14.906-14.829 14.998l6.134-10.625a7.627 7.627 0 0 0 1.371-4.373 7.65 7.65 0 0 0-2.305-5.479zm-10.82 5.479A5.455 5.455 0 0 1 15 9.552a5.454 5.454 0 0 1 5.449 5.449A5.455 5.455 0 0 1 15 20.45a5.456 5.456 0 0 1-5.449-5.449zm7.506 7.395-4.295 7.439C5.539 28.753 0 22.524 0 15.001c0-2.673.7-5.182 1.926-7.354l6.123 10.606c1.227 2.611 3.881 4.424 6.951 4.424a7.63 7.63 0 0 0 2.057-.281z"/></svg>
