<svg xmlns="http://www.w3.org/2000/svg" aria-hidden="true" viewBox="0 0 20 20"><path fill-rule="evenodd" d="M9.38 3.08A1 1 0 0 1 10 4v12a1 1 0 0 1-1.7.7L4.58 13H2a1 1 0 0 1-1-1V8a1 1 0 0 1 1-1h2.59l3.7-3.7a1 1 0 0 1 1.1-.22zm5.28-.15a1 1 0 0 1 1.41 0A9.97 9.97 0 0 1 19 10a9.97 9.97 0 0 1-2.93 7.07 1 1 0 0 1-1.41-1.41A7.97 7.97 0 0 0 17 10a7.97 7.97 0 0 0-2.34-5.66 1 1 0 0 1 0-1.41zm-2.83 2.83a1 1 0 0 1 1.41 0A5.98 5.98 0 0 1 15 10a5.98 5.98 0 0 1-1.76 4.24 1 1 0 0 1-1.41-1.41A3.98 3.98 0 0 0 13 10a3.98 3.98 0 0 0-1.17-2.83 1 1 0 0 1 0-1.41z" clip-rule="evenodd"/></svg>
